# xmcd
#
# Track frame offsets:
#	150
#	37639
#	80472
#	122378
#	160707
#	197458
#	236648
#	271129
#	316171
#
# Disc length: 4484 seconds
#
# Revision: 0
# Processed by: cddbd v1.5.2PL0 Copyright (c) Steve Scherf et al.
# Submitted via: dBpowerAMP V4.0
#
DISCID=5c118209
DTITLE=C.S. Forester - African Queen
DYEAR=2007
DGENRE=Lesung
TTITLE0=CD2 01 Allnuts Bes‰ufnis
TTITLE1=CD2 02 Das groﬂe Schweigen
TTITLE2=CD2 03 Shona
TTITLE3=CD2 04 Stromschnellen
TTITLE4=CD2 05 Wohlverdiente Rast
TTITLE5=CD2 06 Unvermeidliche Entwicklung
TTITLE6=CD2 07 Rose und Charlie
TTITLE7=CD2 08 Noch einmal glimpflich davongekommen
TTITLE8=CD2 09 Tage hektischer Betriebsamkeit
EXTD=
EXTT0=
EXTT1=
EXTT2=
EXTT3=
EXTT4=
EXTT5=
EXTT6=
EXTT7=
EXTT8=
PLAYORDER=
